<mxfile host="65bd71144e">
    <diagram id="MJhnOnxW4GqtXFylcWju" name="Page-1">
        <mxGraphModel dx="1379" dy="789" grid="1" gridSize="10" guides="1" tooltips="1" connect="1" arrows="1" fold="1" page="1" pageScale="1" pageWidth="1027" pageHeight="2569" math="0" shadow="0">
            <root>
                <mxCell id="0"/>
                <mxCell id="1" parent="0"/>
                <mxCell id="2" value="TopicMapElement" style="rounded=1;whiteSpace=wrap;html=1;" parent="1" vertex="1">
                    <mxGeometry x="100" y="370" width="120" height="60" as="geometry"/>
                </mxCell>
                <mxCell id="87" style="edgeStyle=orthogonalEdgeStyle;rounded=0;orthogonalLoop=1;jettySize=auto;html=1;fontFamily=Fira Code;fontSource=https%3A%2F%2Ffonts.googleapis.com%2Fcss%3Ffamily%3DFira%2BCode;" parent="1" source="3" edge="1">
                    <mxGeometry relative="1" as="geometry">
                        <mxPoint x="220" y="400" as="targetPoint"/>
                    </mxGeometry>
                </mxCell>
                <mxCell id="3" value="Connection" style="rounded=1;whiteSpace=wrap;html=1;" parent="1" vertex="1">
                    <mxGeometry x="290" y="370" width="120" height="60" as="geometry"/>
                </mxCell>
                <mxCell id="4" value="TopicMap" style="rounded=1;whiteSpace=wrap;html=1;" parent="1" vertex="1">
                    <mxGeometry x="100" y="190" width="120" height="60" as="geometry"/>
                </mxCell>
                <mxCell id="9" value="" style="group" parent="1" vertex="1" connectable="0">
                    <mxGeometry x="160" y="250" width="40" height="120" as="geometry"/>
                </mxCell>
                <mxCell id="5" value="" style="endArrow=classic;html=1;exitX=0.5;exitY=1;exitDx=0;exitDy=0;" parent="9" source="4" edge="1">
                    <mxGeometry width="50" height="50" relative="1" as="geometry">
                        <mxPoint x="280" y="70" as="sourcePoint"/>
                        <mxPoint y="120" as="targetPoint"/>
                    </mxGeometry>
                </mxCell>
                <mxCell id="8" value="1..*" style="text;html=1;strokeColor=none;fillColor=none;align=center;verticalAlign=middle;whiteSpace=wrap;rounded=0;" parent="9" vertex="1">
                    <mxGeometry width="40" height="20" as="geometry"/>
                </mxCell>
                <mxCell id="36" value="" style="group" parent="1" vertex="1" connectable="0">
                    <mxGeometry x="210" y="380" width="50" height="70" as="geometry"/>
                </mxCell>
                <mxCell id="37" value="0..*" style="text;html=1;strokeColor=none;fillColor=none;align=center;verticalAlign=middle;whiteSpace=wrap;rounded=0;" parent="36" vertex="1">
                    <mxGeometry width="50" height="11.666666666666668" as="geometry"/>
                </mxCell>
                <mxCell id="38" value="" style="endArrow=classic;html=1;" parent="1" source="2" target="3" edge="1">
                    <mxGeometry width="50" height="50" relative="1" as="geometry">
                        <mxPoint x="220" y="400" as="sourcePoint"/>
                        <mxPoint x="470" y="270" as="targetPoint"/>
                    </mxGeometry>
                </mxCell>
                <mxCell id="74" value="" style="group" parent="1" vertex="1" connectable="0">
                    <mxGeometry x="513" y="70" width="310" height="520" as="geometry"/>
                </mxCell>
                <mxCell id="72" value="" style="rounded=0;whiteSpace=wrap;html=1;fontFamily=Fira Code;fontSource=https%3A%2F%2Ffonts.googleapis.com%2Fcss%3Ffamily%3DFira%2BCode;align=left;labelBackgroundColor=#FFC6BD;strokeColor=#BD7000;fontColor=#000000;fillColor=#006600;" parent="74" vertex="1">
                    <mxGeometry width="310" height="520" as="geometry"/>
                </mxCell>
                <mxCell id="44" value="TopicMapElement" style="swimlane;fontFamily=Fira Code;fontSource=https%3A%2F%2Ffonts.googleapis.com%2Fcss%3Ffamily%3DFira%2BCode;" parent="74" vertex="1">
                    <mxGeometry x="30" y="140" width="250" height="110" as="geometry"/>
                </mxCell>
                <mxCell id="46" value="TopicMapData" style="swimlane;fontFamily=Fira Code;fontSource=https%3A%2F%2Ffonts.googleapis.com%2Fcss%3Ffamily%3DFira%2BCode;" parent="74" vertex="1">
                    <mxGeometry x="30" y="50" width="260" height="70" as="geometry"/>
                </mxCell>
                <mxCell id="47" value="&lt;span style=&quot;font-family: &amp;#34;fira code&amp;#34;&quot;&gt;elements: Array&amp;lt;TopicMapElement&amp;gt;;&lt;/span&gt;" style="text;html=1;align=left;verticalAlign=middle;resizable=0;points=[];autosize=1;strokeColor=none;" parent="46" vertex="1">
                    <mxGeometry x="10" y="35" width="250" height="20" as="geometry"/>
                </mxCell>
                <mxCell id="49" value="Connection" style="swimlane;fontFamily=Fira Code;fontSource=https%3A%2F%2Ffonts.googleapis.com%2Fcss%3Ffamily%3DFira%2BCode;" parent="74" vertex="1">
                    <mxGeometry x="30" y="270" width="240" height="100" as="geometry"/>
                </mxCell>
                <mxCell id="50" value="&lt;div&gt;&lt;font face=&quot;Fira Code&quot; data-font-src=&quot;https://fonts.googleapis.com/css?family=Fira+Code&quot;&gt;&lt;span&gt;start: Position;&lt;/span&gt;&lt;br&gt;&lt;/font&gt;&lt;/div&gt;&lt;div&gt;&lt;font face=&quot;Fira Code&quot; data-font-src=&quot;https://fonts.googleapis.com/css?family=Fira+Code&quot;&gt;end: Position;&lt;/font&gt;&lt;/div&gt;&lt;div&gt;&lt;font face=&quot;Fira Code&quot; data-font-src=&quot;https://fonts.googleapis.com/css?family=Fira+Code&quot;&gt;startElement: TopicMapElement;&lt;/font&gt;&lt;/div&gt;&lt;div&gt;&lt;font face=&quot;Fira Code&quot; data-font-src=&quot;https://fonts.googleapis.com/css?family=Fira+Code&quot;&gt;endElement: TopicMapElement;&lt;/font&gt;&lt;/div&gt;" style="text;html=1;align=left;verticalAlign=middle;resizable=0;points=[];autosize=1;strokeColor=none;" parent="49" vertex="1">
                    <mxGeometry x="10" y="30" width="230" height="60" as="geometry"/>
                </mxCell>
                <mxCell id="69" value="Proposal 1" style="text;html=1;align=left;verticalAlign=middle;resizable=0;points=[];autosize=1;strokeColor=none;fontFamily=Fira Code;" parent="74" vertex="1">
                    <mxGeometry x="30" y="20" width="90" height="20" as="geometry"/>
                </mxCell>
                <mxCell id="45" value="&lt;div&gt;&lt;font face=&quot;Fira Code&quot; data-font-src=&quot;https://fonts.googleapis.com/css?family=Fira+Code&quot;&gt;&lt;span&gt;position: Position;&lt;/span&gt;&lt;br&gt;&lt;/font&gt;&lt;/div&gt;&lt;div&gt;&lt;font face=&quot;Fira Code&quot; data-font-src=&quot;https://fonts.googleapis.com/css?family=Fira+Code&quot;&gt;width: number;&lt;/font&gt;&lt;/div&gt;&lt;div&gt;&lt;font face=&quot;Fira Code&quot; data-font-src=&quot;https://fonts.googleapis.com/css?family=Fira+Code&quot;&gt;height: number;&lt;/font&gt;&lt;/div&gt;&lt;div&gt;&lt;font face=&quot;Fira Code&quot; data-font-src=&quot;https://fonts.googleapis.com/css?family=Fira+Code&quot;&gt;backgroundImage: Image;&lt;/font&gt;&lt;/div&gt;&lt;div&gt;&lt;font face=&quot;Fira Code&quot; data-font-src=&quot;https://fonts.googleapis.com/css?family=Fira+Code&quot;&gt;arrows: Map&amp;lt;Connection&amp;gt;;&lt;/font&gt;&lt;/div&gt;" style="text;html=1;align=left;verticalAlign=middle;resizable=0;points=[];autosize=1;strokeColor=none;" parent="74" vertex="1">
                    <mxGeometry x="40" y="170" width="190" height="80" as="geometry"/>
                </mxCell>
                <mxCell id="90" value="ConnectionPoint" style="swimlane;fontFamily=Fira Code;fontSource=https%3A%2F%2Ffonts.googleapis.com%2Fcss%3Ffamily%3DFira%2BCode;" parent="74" vertex="1">
                    <mxGeometry x="30" y="400" width="240" height="100" as="geometry"/>
                </mxCell>
                <mxCell id="91" value="&lt;div&gt;&lt;font face=&quot;Fira Code&quot; data-font-src=&quot;https://fonts.googleapis.com/css?family=Fira+Code&quot;&gt;&lt;span&gt;start: Position;&lt;/span&gt;&lt;br&gt;&lt;/font&gt;&lt;/div&gt;&lt;div&gt;&lt;font face=&quot;Fira Code&quot; data-font-src=&quot;https://fonts.googleapis.com/css?family=Fira+Code&quot;&gt;end: Position;&lt;/font&gt;&lt;/div&gt;&lt;div&gt;&lt;font face=&quot;Fira Code&quot; data-font-src=&quot;https://fonts.googleapis.com/css?family=Fira+Code&quot;&gt;startElement: TopicMapElement;&lt;/font&gt;&lt;/div&gt;&lt;div&gt;&lt;font face=&quot;Fira Code&quot; data-font-src=&quot;https://fonts.googleapis.com/css?family=Fira+Code&quot;&gt;endElement: TopicMapElement;&lt;/font&gt;&lt;/div&gt;" style="text;html=1;align=left;verticalAlign=middle;resizable=0;points=[];autosize=1;strokeColor=none;" parent="90" vertex="1">
                    <mxGeometry x="10" y="30" width="230" height="60" as="geometry"/>
                </mxCell>
                <mxCell id="75" value="" style="group" parent="1" vertex="1" connectable="0">
                    <mxGeometry x="950" y="70" width="310" height="510" as="geometry"/>
                </mxCell>
                <mxCell id="73" value="" style="rounded=0;whiteSpace=wrap;html=1;fontFamily=Fira Code;fontSource=https%3A%2F%2Ffonts.googleapis.com%2Fcss%3Ffamily%3DFira%2BCode;align=left;labelBackgroundColor=#FFC6BD;strokeColor=#BD7000;fontColor=#000000;fillColor=#660033;" parent="75" vertex="1">
                    <mxGeometry width="310" height="510" as="geometry"/>
                </mxCell>
                <mxCell id="63" value="TopicMapElement" style="swimlane;fontFamily=Fira Code;fontSource=https%3A%2F%2Ffonts.googleapis.com%2Fcss%3Ffamily%3DFira%2BCode;" parent="75" vertex="1">
                    <mxGeometry x="25" y="150" width="250" height="100" as="geometry"/>
                </mxCell>
                <mxCell id="64" value="&lt;div&gt;&lt;font face=&quot;Fira Code&quot; data-font-src=&quot;https://fonts.googleapis.com/css?family=Fira+Code&quot;&gt;&lt;span&gt;start: Position;&lt;/span&gt;&lt;br&gt;&lt;/font&gt;&lt;/div&gt;&lt;div&gt;&lt;font face=&quot;Fira Code&quot; data-font-src=&quot;https://fonts.googleapis.com/css?family=Fira+Code&quot;&gt;end: Position;&lt;/font&gt;&lt;/div&gt;&lt;div&gt;&lt;font face=&quot;Fira Code&quot; data-font-src=&quot;https://fonts.googleapis.com/css?family=Fira+Code&quot;&gt;backgroundImage: Image;&lt;/font&gt;&lt;/div&gt;&lt;div&gt;&lt;font face=&quot;Fira Code&quot; data-font-src=&quot;https://fonts.googleapis.com/css?family=Fira+Code&quot;&gt;connections: Array&amp;lt;Connection&amp;gt;;&lt;/font&gt;&lt;/div&gt;" style="text;html=1;align=left;verticalAlign=middle;resizable=0;points=[];autosize=1;strokeColor=none;" parent="63" vertex="1">
                    <mxGeometry x="10" y="30" width="240" height="60" as="geometry"/>
                </mxCell>
                <mxCell id="65" value="TopicMapData" style="swimlane;fontFamily=Fira Code;fontSource=https%3A%2F%2Ffonts.googleapis.com%2Fcss%3Ffamily%3DFira%2BCode;" parent="75" vertex="1">
                    <mxGeometry x="25" y="50" width="260" height="80" as="geometry"/>
                </mxCell>
                <mxCell id="66" value="&lt;font face=&quot;Fira Code&quot; data-font-src=&quot;https://fonts.googleapis.com/css?family=Fira+Code&quot;&gt;arrows: Array&amp;lt;Arrow&amp;gt;;&lt;br&gt;&lt;/font&gt;&lt;div&gt;&lt;span&gt;&lt;font face=&quot;Fira Code&quot; data-font-src=&quot;https://fonts.googleapis.com/css?family=Fira+Code&quot;&gt;elements: Array&amp;lt;TopicMapElement&amp;gt;;&lt;/font&gt;&lt;/span&gt;&lt;/div&gt;" style="text;html=1;align=left;verticalAlign=middle;resizable=0;points=[];autosize=1;strokeColor=none;" parent="65" vertex="1">
                    <mxGeometry x="10" y="30" width="250" height="30" as="geometry"/>
                </mxCell>
                <mxCell id="67" value="Arrow" style="swimlane;fontFamily=Fira Code;fontSource=https%3A%2F%2Ffonts.googleapis.com%2Fcss%3Ffamily%3DFira%2BCode;" parent="75" vertex="1">
                    <mxGeometry x="25" y="270" width="240" height="100" as="geometry"/>
                </mxCell>
                <mxCell id="68" value="&lt;div&gt;&lt;font face=&quot;Fira Code&quot; data-font-src=&quot;https://fonts.googleapis.com/css?family=Fira+Code&quot;&gt;&lt;span&gt;start: Position;&lt;/span&gt;&lt;br&gt;&lt;/font&gt;&lt;/div&gt;&lt;div&gt;&lt;font face=&quot;Fira Code&quot; data-font-src=&quot;https://fonts.googleapis.com/css?family=Fira+Code&quot;&gt;end: Position;&lt;/font&gt;&lt;/div&gt;&lt;div&gt;&lt;font face=&quot;Fira Code&quot; data-font-src=&quot;https://fonts.googleapis.com/css?family=Fira+Code&quot;&gt;startElement: TopicMapElement;&lt;/font&gt;&lt;/div&gt;&lt;div&gt;&lt;font face=&quot;Fira Code&quot; data-font-src=&quot;https://fonts.googleapis.com/css?family=Fira+Code&quot;&gt;endElement: TopicMapElement;&lt;/font&gt;&lt;/div&gt;" style="text;html=1;align=left;verticalAlign=middle;resizable=0;points=[];autosize=1;strokeColor=none;" parent="67" vertex="1">
                    <mxGeometry x="10" y="30" width="230" height="60" as="geometry"/>
                </mxCell>
                <mxCell id="70" value="Proposal 2" style="text;html=1;align=left;verticalAlign=middle;resizable=0;points=[];autosize=1;strokeColor=none;fontFamily=Fira Code;" parent="75" vertex="1">
                    <mxGeometry x="10" y="20" width="90" height="20" as="geometry"/>
                </mxCell>
                <mxCell id="85" value="Connection" style="swimlane;fontFamily=Fira Code;fontSource=https%3A%2F%2Ffonts.googleapis.com%2Fcss%3Ffamily%3DFira%2BCode;" parent="75" vertex="1">
                    <mxGeometry x="25" y="390" width="240" height="100" as="geometry"/>
                </mxCell>
                <mxCell id="86" value="&lt;div&gt;&lt;font face=&quot;Fira Code&quot; data-font-src=&quot;https://fonts.googleapis.com/css?family=Fira+Code&quot;&gt;&lt;span&gt;start: Position;&lt;/span&gt;&lt;br&gt;&lt;/font&gt;&lt;/div&gt;&lt;div&gt;&lt;font face=&quot;Fira Code&quot; data-font-src=&quot;https://fonts.googleapis.com/css?family=Fira+Code&quot;&gt;end: Position;&lt;/font&gt;&lt;/div&gt;&lt;div&gt;&lt;font face=&quot;Fira Code&quot; data-font-src=&quot;https://fonts.googleapis.com/css?family=Fira+Code&quot;&gt;startElement: TopicMapElement;&lt;/font&gt;&lt;/div&gt;&lt;div&gt;&lt;font face=&quot;Fira Code&quot; data-font-src=&quot;https://fonts.googleapis.com/css?family=Fira+Code&quot;&gt;endElement: TopicMapElement;&lt;/font&gt;&lt;/div&gt;" style="text;html=1;align=left;verticalAlign=middle;resizable=0;points=[];autosize=1;strokeColor=none;" parent="85" vertex="1">
                    <mxGeometry x="10" y="30" width="230" height="60" as="geometry"/>
                </mxCell>
                <mxCell id="88" value="" style="group" parent="1" vertex="1" connectable="0">
                    <mxGeometry x="250" y="380" width="50" height="70" as="geometry"/>
                </mxCell>
                <mxCell id="89" value="2" style="text;html=1;strokeColor=none;fillColor=none;align=center;verticalAlign=middle;whiteSpace=wrap;rounded=0;" parent="88" vertex="1">
                    <mxGeometry width="50" height="11.666666666666668" as="geometry"/>
                </mxCell>
            </root>
        </mxGraphModel>
    </diagram>
</mxfile>